<svg xmlns="http://www.w3.org/2000/svg" width="256" height="256" fill="none" viewBox="0 0 256 256">
  <defs>
    <!-- Dark glass-like gradient background -->
    <linearGradient id="bg_grad" x1="0%" y1="0%" x2="100%" y2="100%">
      <stop offset="0%" stop-color="#1f2435"/>
      <stop offset="100%" stop-color="#0b0e14"/>
    </linearGradient>
    <!-- Brand glow border gradient -->
    <linearGradient id="glow_grad" x1="0%" y1="0%" x2="100%" y2="100%">
      <stop offset="0%" stop-color="#AA00FF"/>
      <stop offset="100%" stop-color="#E040FB"/>
    </linearGradient>
  </defs>

  <!-- Card Background -->
  <rect width="256" height="256" fill="url(#bg_grad)" rx="60"/>
  
  <!-- Glowing Border Outline -->
  <rect x="4" y="4" width="248" height="248" rx="56" stroke="url(#glow_grad)" stroke-width="6" opacity="0.85"/>

  <!-- Centered Inner Icon -->
  <svg x="52" y="52" width="152" height="152" viewBox="0 0 24 24">
    <path d="M19 3H5c-1.1 0-2 .9-2 2v14c0 1.1.9 2 2 2h14c1.1 0 2-.9 2-2V5c0-1.1-.9-2-2-2zm-8 14H7v-2h4v2zm0-4H7v-2h4v2zm0-4H7V7h4v2zm6 8h-4v-2h4v2zm0-4h-4v-2h4v2zm0-4h-4V7h4v2z" fill="#AB47BC"/>
  </svg>
</svg>