<svg xmlns="http://www.w3.org/2000/svg" width="256" height="256" fill="none" viewBox="0 0 256 256">
  <defs>
    <!-- Dark glass-like gradient background -->
    <linearGradient id="bg_grad" x1="0%" y1="0%" x2="100%" y2="100%">
      <stop offset="0%" stop-color="#1f2435"/>
      <stop offset="100%" stop-color="#0b0e14"/>
    </linearGradient>
    <!-- Brand glow border gradient -->
    <linearGradient id="glow_grad" x1="0%" y1="0%" x2="100%" y2="100%">
      <stop offset="0%" stop-color="#009688"/>
      <stop offset="100%" stop-color="#80CBC4"/>
    </linearGradient>
  </defs>

  <!-- Card Background -->
  <rect width="256" height="256" fill="url(#bg_grad)" rx="60"/>
  
  <!-- Glowing Border Outline -->
  <rect x="4" y="4" width="248" height="248" rx="56" stroke="url(#glow_grad)" stroke-width="6" opacity="0.85"/>

  <!-- Centered Inner Icon -->
  <svg x="52" y="52" width="152" height="152" viewBox="0 0 256 256">
    <rect width="256" height="256" rx="60" fill="#049789"/>
<path d="M127.5 41C79.743 41 41 79.743 41 127.5C41 175.257 79.743 214 127.5 214C175.257 214 214 175.257 214 127.5C214 79.743 175.257 41 127.5 41ZM122.993 196.839V142.581H92.8306L136.167 58.1615V112.419H165.203L122.993 196.839Z" fill="white"/>
  </svg>
</svg>