<svg xmlns="http://www.w3.org/2000/svg" width="256" height="256" fill="none" viewBox="0 0 256 256">
  <defs>
    <!-- Dark glass-like gradient background -->
    <linearGradient id="bg_grad" x1="0%" y1="0%" x2="100%" y2="100%">
      <stop offset="0%" stop-color="#1f2435"/>
      <stop offset="100%" stop-color="#0b0e14"/>
    </linearGradient>
    <!-- Brand glow border gradient -->
    <linearGradient id="glow_grad" x1="0%" y1="0%" x2="100%" y2="100%">
      <stop offset="0%" stop-color="#00E676"/>
      <stop offset="100%" stop-color="#B9F6CA"/>
    </linearGradient>
  </defs>

  <!-- Card Background -->
  <rect width="256" height="256" fill="url(#bg_grad)" rx="60"/>
  
  <!-- Glowing Border Outline -->
  <rect x="4" y="4" width="248" height="248" rx="56" stroke="url(#glow_grad)" stroke-width="6" opacity="0.85"/>

  <!-- Centered Inner Icon -->
  <svg x="52" y="52" width="152" height="152" viewBox="0 0 24 24">
    <path d="M12 2C6.5 2 2 6.5 2 12c0 3.5 2 6.5 5 8.2V22h10v-1.8c3-1.7 5-4.7 5-8.2 0-5.5-4.5-10-10-10zm-3 15v-2h6v2H9zm3-4c-1.7 0-3-1.3-3-3s1.3-3 3-3 3 1.3 3 3-1.3 3-3 3z" fill="#00C853"/>
  </svg>
</svg>