<svg xmlns="http://www.w3.org/2000/svg" width="256" height="256" fill="none" viewBox="0 0 256 256">
  <defs>
    <!-- Dark glass-like gradient background -->
    <linearGradient id="bg_grad" x1="0%" y1="0%" x2="100%" y2="100%">
      <stop offset="0%" stop-color="#1f2435"/>
      <stop offset="100%" stop-color="#0b0e14"/>
    </linearGradient>
    <!-- Brand glow border gradient -->
    <linearGradient id="glow_grad" x1="0%" y1="0%" x2="100%" y2="100%">
      <stop offset="0%" stop-color="#607D8B"/>
      <stop offset="100%" stop-color="#B0BEC5"/>
    </linearGradient>
  </defs>

  <!-- Card Background -->
  <rect width="256" height="256" fill="url(#bg_grad)" rx="60"/>
  
  <!-- Glowing Border Outline -->
  <rect x="4" y="4" width="248" height="248" rx="56" stroke="url(#glow_grad)" stroke-width="6" opacity="0.85"/>

  <!-- Centered Inner Icon -->
  <svg x="52" y="52" width="152" height="152" viewBox="0 0 24 24">
    <path d="M12 2C6.48 2 2 3.79 2 6v12c0 2.21 4.48 4 10 4s10-1.79 10-4V6c0-2.21-4.48-4-10-4zm0 2c4.42 0 8 1.34 8 3s-3.58 3-8 3-8-1.34-8-3 3.58-3 8-3zm0 14c-4.42 0-8-1.34-8-3V11c1.35.85 4.3 1.5 8 1.5s6.65-.65 8-1.5v4c0 1.66-3.58 3-8 3z" fill="#78909C"/>
  </svg>
</svg>